P1
# Created by GIMP version 2.10.30 PNM plug-in
50 50
0000000000000000000000000000000000000000000000000000000000000000000000
0000000000000000000000000000000000000000000000000000000000000000000000
0000000000000000000000000000000000000000000000000000000000000000111110
0000000000000000000000000000000000000000000011111000000000000000000000
0000000000000000000000001111100000000000000000000000000000000000000000
0000111110000000000000000000000000000000000000000000001111100000000000
0000000000000000000000000000000000111110000000000000000000000000000000
0000000000000011111000000000000000000000000000000000000000000000111110
0000000000000000000000000000000000000000000011111000000000000000000000
0000000000000000000000001111100000000000000000000000000000000000000000
0000111110000000000000000000000000000000000000000000000000000000000000
0000000000000000000000000000000000000000000000000000000000000000000000
0000000000000000000000000000000000000000000000000000000000000000000000
0000000000000000000000000000000000000000000000000000000000000000000000
0000000000000000000000000000000000000000110000000000000000000000000000
0000000000000000000111100000000000000000000000000000000000000000000011
1111000000000000000000000000000000000000000000001111110000000000000000
0000000000000000000000000000011110000000000000000000000000000000000000
0000000001111000000000000000000000000000000000000000000000001100000000
0000000000000000000000000000000000000000000000000000000000000000000000
0000000000000000000000000000000000000000000000000000000000000000000000
0000000000000000000000000000000000000000000000000000000000000000000000
0000000000000000000000000000000000000001111111111111000000000000000000
0000000000000000000111111111111100000000000000000000000000000000000001
1001111111110000000000000000000000000000000000000110011111111100000000
0000000000000000000000000000011111111111110000000000000000000000000000
0000000001111111111111000000000000000000000000000000000000011111111111
1100000000000000000000000000000000000001111111111111000000000000000000
0000000000000000000111111111111100000000000000000000000000000000000001
1111111111110000000000000000000000000000000000000000000000000000000000
0000000000000000000000000000000000000000000000000000000000110000000000
0000000000000000000000000000000000001111100000000000000000000000000000
0000000000000001100011000000000000000000000000000000000000000000011000
1100000000000000000000000000000000000000000000111110000000000000000000
0000000000000000000000000001100000000000000000000000000000000000000000
00000000000000000000000000000000000000000000000000